<?xml version="1.0" encoding="UTF-8"?>
<svg width="1621px" height="1286px" viewBox="0 0 1621 1286" version="1.1" xmlns="http://www.w3.org/2000/svg" xmlns:xlink="http://www.w3.org/1999/xlink">
    <!-- Generator: Sketch 51.3 (57544) - http://www.bohemiancoding.com/sketch -->
    <title>Blob Lines</title>
    <desc>Created with Sketch.</desc>
    <defs></defs>
    <g id="Blob-Lines" stroke="none" stroke-width="1" fill="none" fill-rule="evenodd">
        <g id="Group-2" transform="translate(766.500000, 669.000000) rotate(135.000000) translate(-766.500000, -669.000000) translate(-140.000000, 228.000000)" fill-rule="nonzero" stroke="#FFAA91">
            <path d="M472.883723,88.877243 C1111.99918,527.691666 947.491431,148.363798 1318.15143,193.825081 C1688.81143,239.286364 2348.04283,766.533964 1018.95039,875.520974 C-310.142049,984.507984 -166.231736,-349.93718 472.883723,88.877243 Z" id="Path-2"></path>
            <path d="M504.598921,113.518543 C1098.9883,521.624195 945.993,168.842155 1290.71376,211.122002 C1635.43452,253.401849 2248.5321,743.752016 1012.45117,845.111982 C-223.629749,946.471947 -89.7904561,-294.58711 504.598921,113.518543 Z" id="Path-2"></path>
            <path d="M533.224162,138.159118 C1082.88225,515.552424 941.400746,189.319304 1260.17924,228.417344 C1578.95774,267.515385 2145.91613,720.963823 1002.85755,814.695856 C-140.201026,908.42789 -16.4339255,-239.234188 533.224162,138.159118 Z" id="Path-2"></path>
            <path d="M564.935507,162.799694 C1069.8623,509.480654 939.894595,209.796453 1232.73083,245.712687 C1525.56707,281.62892 2046.38626,698.17563 996.350033,784.279731 C-53.6861989,870.383832 60.0087089,-183.881267 564.935507,162.799694 Z" id="Path-2"></path>
            <path d="M596.646851,187.440269 C1056.84236,503.408884 938.388444,230.273602 1205.28242,263.008029 C1472.1764,295.742456 1946.8564,675.387438 989.842514,753.863606 C32.8286279,832.339774 136.451343,-128.528346 596.646851,187.440269 Z" id="Path-2"></path>
        </g>
    </g>
</svg>