<?xml version="1.0" encoding="UTF-8"?>
<svg width="635px" height="537px" viewBox="0 0 635 537" version="1.1" xmlns="http://www.w3.org/2000/svg" xmlns:xlink="http://www.w3.org/1999/xlink">
    <!-- Generator: Sketch 51.3 (57544) - http://www.bohemiancoding.com/sketch -->
    <title>lines</title>
    <desc>Created with Sketch.</desc>
    <defs></defs>
    <g id="Iteration-4" stroke="none" stroke-width="1" fill="none" fill-rule="evenodd" opacity="0.7">
        <g id="Pink-+-Blue" transform="translate(-607.000000, -266.000000)" fill-rule="nonzero" stroke="#001DDF" stroke-width="3">
            <g id="lines" transform="translate(905.500000, 525.500000) rotate(110.000000) translate(-905.500000, -525.500000) translate(579.000000, 122.000000)">
                <path d="M152.855558,262.522022 C408.603661,438.211206 342.774326,286.338796 491.097435,304.540239 C639.420544,322.741682 903.21823,533.83707 371.369305,577.472461 C-160.47962,621.107852 -102.892546,86.8328376 152.855558,262.522022 Z" id="Path-2" transform="translate(326.331377, 403.477799) scale(-1, 1) rotate(62.000000) translate(-326.331377, -403.477799) "></path>
                <path d="M164.931101,271.87498 C402.801667,435.181814 341.573995,294.013178 479.528886,310.931807 C617.483777,327.850436 862.841237,524.068089 368.170101,564.628114 C-126.501035,605.188138 -72.9394649,108.568145 164.931101,271.87498 Z" id="Path-2" transform="translate(326.280455, 402.896374) scale(-1, 1) rotate(62.000000) translate(-326.280455, -402.896374) "></path>
                <path d="M177.006644,282.018662 C396.999673,432.943147 340.373663,302.478285 467.960337,318.114099 C595.547011,333.749913 822.464244,515.089834 364.970897,552.574492 C-92.5224502,590.059149 -42.9863843,131.094177 177.006644,282.018662 Z" id="Path-2" transform="translate(326.229534, 403.105673) scale(-1, 1) rotate(62.000000) translate(-326.229534, -403.105673) "></path>
                <path d="M189.082188,292.209664 C391.197679,430.985429 339.173331,311.022382 456.391788,325.399586 C573.610245,339.77679 782.087251,506.519689 361.771693,540.987006 C-58.5438653,575.454322 -13.0333036,153.433899 189.082188,292.209664 Z" id="Path-2" transform="translate(326.178612, 403.549733) scale(-1, 1) rotate(62.000000) translate(-326.178612, -403.549733) "></path>
                <path d="M201.948456,301.562622 C386.18641,427.956038 338.763724,318.696764 445.613964,331.791154 C552.464203,344.885543 742.500983,496.750709 359.363214,528.142659 C-23.7745556,559.534609 17.7105018,175.169206 201.948456,301.562622 Z" id="Path-2" transform="translate(326.918415, 402.968308) scale(-1, 1) rotate(62.000000) translate(-326.918415, -402.968308) "></path>
            </g>
        </g>
    </g>
</svg>