<?xml version="1.0" encoding="UTF-8"?>
<svg width="1384px" height="1060px" viewBox="0 0 1384 1060" version="1.1" xmlns="http://www.w3.org/2000/svg" xmlns:xlink="http://www.w3.org/1999/xlink">
    <!-- Generator: Sketch 51.3 (57544) - http://www.bohemiancoding.com/sketch -->
    <title>Curve Lines - Top</title>
    <desc>Created with Sketch.</desc>
    <defs></defs>
    <g id="Curve-Lines---Top" stroke="none" stroke-width="1" fill="none" fill-rule="evenodd" opacity="0.7">
        <g id="lines" transform="translate(693.500000, 580.000000) rotate(22.000000) translate(-693.500000, -580.000000) translate(-79.000000, 204.000000)" fill-rule="nonzero" stroke="#FFFFFF" stroke-width="2">
            <path d="M403.025705,75.78792 C947.726116,449.976309 807.520714,126.513641 1123.42397,165.279651 C1439.32722,204.045661 2001.17189,653.643304 868.423206,746.579341 C-264.325481,839.515379 -141.674706,-298.400469 403.025705,75.78792 Z" id="Path-2"></path>
            <path d="M429.853034,96.4464841 C936.4773,444.262553 806.072664,143.597121 1099.89336,179.630952 C1393.71406,215.664783 1916.28415,633.575358 862.717894,719.961382 C-190.84836,806.347407 -76.7712317,-251.369585 429.853034,96.4464841 Z" id="Path-2"></path>
            <path d="M454.680364,118.105048 C923.228484,439.548797 802.624614,161.680601 1074.36275,194.982253 C1346.10089,228.283906 1829.3964,614.507412 855.012583,694.343423 C-119.371239,774.179434 -13.8677571,-203.338701 454.680364,118.105048 Z" id="Path-2"></path>
            <path d="M481.507693,138.864394 C911.979668,434.433414 801.176564,178.932318 1050.83215,209.553341 C1300.48773,240.174365 1744.50866,595.308673 849.307271,668.718256 C-45.8941182,742.127839 51.0357175,-156.704626 481.507693,138.864394 Z" id="Path-2"></path>
            <path d="M508.335022,159.522958 C900.730852,428.719659 799.728514,196.015798 1027.30154,223.904643 C1254.87456,251.793488 1659.62092,575.240728 843.60196,642.100297 C27.5830028,708.959867 115.939192,-109.673742 508.335022,159.522958 Z" id="Path-2"></path>
        </g>
    </g>
</svg>